<svg
   version="1.0"
   width="300.000000pt"
   height="345.000000pt"
   viewBox="0 0 300.000000 345.000000"
   preserveAspectRatio="xMidYMid meet"
   id="svg20"
   sodipodi:docname="aWoIiV01.svg"
   xml:space="preserve"
   inkscape:version="1.3.2 (091e20e, 2023-11-25)"
   xmlns:inkscape="http://www.inkscape.org/namespaces/inkscape"
   xmlns:sodipodi="http://sodipodi.sourceforge.net/DTD/sodipodi-0.dtd"
   xmlns="http://www.w3.org/2000/svg"
   xmlns:svg="http://www.w3.org/2000/svg"><defs
     id="defs20" /><sodipodi:namedview
     id="namedview20"
     pagecolor="#ffffff"
     bordercolor="#000000"
     borderopacity="0.25"
     inkscape:showpageshadow="2"
     inkscape:pageopacity="0.0"
     inkscape:pagecheckerboard="0"
     inkscape:deskcolor="#d1d1d1"
     inkscape:document-units="pt"
     showguides="true"
     inkscape:zoom="1.7434783"
     inkscape:cx="200.17456"
     inkscape:cy="230"
     inkscape:window-width="1392"
     inkscape:window-height="945"
     inkscape:window-x="419"
     inkscape:window-y="28"
     inkscape:window-maximized="0"
     inkscape:current-layer="g20" /><metadata
     id="metadata1">

</metadata><g
     transform="translate(0.000000,345.000000) scale(0.100000,-0.100000)"
     fill="#000000"
     stroke="none"
     id="g20"><path
       style="fill:#ff00eb;stroke-width:7.5;fill-opacity:1"
       d="m 1458.2917,3351.0599 c -19.3012,-7.7205 -30.1712,-12.9171 -51.6209,-17.207 -25.3357,-5.0672 -55.8646,-10.3184 -81.7332,-12.9053 -4.2804,-0.428 -8.8242,1.3604 -12.9051,0 -1.3604,-0.4534 1.0139,-3.2878 0,-4.3017 -4.1297,-4.1297 -20.3795,2.7155 -25.8105,0 -12.5105,-6.2552 -29.8152,-13.7062 -47.3193,-17.207 -7.0303,-1.4061 -14.4366,1.1787 -21.5087,0 -2.0002,-0.3334 -2.488,-3.3949 -4.3017,-4.3017 -3.4414,-1.7207 -9.4639,1.7207 -12.9052,0 -5.5083,-2.7541 -11.4713,-6.6916 -17.2071,-8.6035 -4.1445,-1.3815 -22.6058,3.2046 -25.8104,0 -1.0139,-1.014 1.0139,-3.2878 0,-4.3018 -2.7286,-2.7286 -13.6254,1.7908 -17.207,0 -6.491,-3.2455 -9.1817,-5.9284 -17.207,-8.6035 -4.8742,-1.6247 -12.6486,2.2792 -17.207,0 -9.6358,-4.8179 -18.9322,-9.1785 -30.1122,-12.9052 -2.7206,-0.9069 -6.0384,1.2825 -8.6035,0 -7.6365,-3.8183 -13.8722,-9.087 -21.5087,-12.9052 -16.5465,-8.2733 -44.0675,-9.1286 -60.22448,-17.207 -19.85985,-9.9299 -40.6071,-20.3036 -60.2244,-30.1122 -8.4216,-4.2108 -22.22572,-19.7164 -34.41397,-25.8105 -13.19738,-6.5987 -20.5869,-24.8887 -30.1122,-34.414 -2.26725,-2.2672 -6.3363,-2.0345 -8.60355,-4.3017 -1.43385,-1.4339 -2.86778,-11.4714 -4.3017,-12.9053 -1.01393,-1.0139 -3.28785,1.014 -4.30178,0 -1.01392,-1.0139 0.64125,-3.0192 0,-4.3017 -4.26135,-8.5228 -16.1982,-13.5429 -21.50872,-21.5087 -2.5152,-3.7729 -1.58108,-9.2777 -4.3017,-12.9053 -8.65433,-11.5391 -23.56988,-21.3292 -30.11228,-34.4139 -3.4533,-6.9067 -5.15017,-14.6021 -8.60347,-21.5088 -4.67423,-9.3484 -16.8345,-20.7638 -21.50873,-30.1122 -2.64397,-5.288 -1.36845,-12.0738 -4.30177,-17.207 -2.8678,-5.0187 -17.20695,-15.773 -21.5087,-21.5087 -5.93761,-7.9168 -2.66587,-13.5919 -8.60349,-21.5087 -3.65015,-4.8669 -9.53067,-7.8434 -12.90523,-12.9053 -10.30491,-15.4573 -10.15249,-24.6067 -17.20698,-38.7157 -8.95142,-17.9028 0.297,4.5987 -8.6035,-4.3017 -1.43391,-1.4339 -2.86783,-11.4713 -4.30174,-12.9053 -1.01393,-1.0139 -3.28782,1.014 -4.30175,0 -4.01817,-4.0181 -4.58531,-17.4905 -8.60349,-21.5087 -1.01393,-1.0139 -3.28781,1.0139 -4.30174,0 -3.88473,-3.8847 -6.04077,-16.3833 -8.60349,-21.5087 -1.81378,-3.6276 -6.78972,-4.976 -8.60349,-8.6035 -1.30356,-2.6071 -2.49913,-11.1026 -4.30175,-12.9052 -1.01393,-1.014 -3.28782,1.0139 -4.30174,0 -3.88473,-3.8848 -6.04077,-16.3833 -8.6035,-21.5088 -1.81377,-3.6275 -6.78971,-4.9759 -8.60349,-8.6035 -0.64125,-1.2825 1.01393,-3.2878 0,-4.3017 -1.01393,-1.0139 -3.28781,1.0139 -4.30175,0 -3.83466,-3.8347 -2.01746,-12.6384 -4.30174,-17.207 -3.20783,-6.4156 -9.62419,-10.6449 -12.90524,-17.207 -1.28253,-2.565 0.90689,-5.8828 0,-8.6035 -4.90319,-14.7095 -3.56802,-3.2011 -12.90523,-17.207 -2.10269,-3.154 -1.8485,-14.7537 -4.30175,-17.2069 -2.15088,-2.1509 -6.45262,-2.1509 -8.60349,-4.3018 -2.02786,-2.0278 1.28253,-6.0384 0,-8.6035 -4.77771,-9.5553 -13.78141,-19.8354 -17.20698,-30.1122 -0.90689,-2.7207 0.90688,-5.8828 0,-8.6034 -0.64125,-1.9239 -3.39486,-2.488 -4.30175,-4.3018 -4.25375,-8.5075 -4.34974,-21.6047 -8.60349,-30.1122 -4.45358,-8.9072 -8.50421,-17.0084 -12.90524,-25.8105 -4.83214,-9.6643 0,-58.9286 0,-73.1297 0,-2.8678 -2.02786,-6.5756 0,-8.6034 1.01393,-1.014 3.28782,1.0139 4.30175,0 2.72864,-2.7287 -1.7908,-13.6254 0,-17.2071 5.57388,-11.1477 7.29033,-23.1841 12.90524,-34.4139 2.74234,-5.4847 3.41071,-42.1264 4.30174,-43.0175 1.01393,-1.0139 3.28781,1.0139 4.30175,0 4.30174,-4.3017 -4.30175,-21.5087 0,-25.8105 4.00653,-4.0065 4.30174,0.3375 4.30174,-8.6035 0,-1.7712 -1.13869,-11.7665 0,-12.9052 1.01393,-1.0139 3.28781,1.014 4.30175,0 1.01393,-1.0139 -0.3939,-2.923 0,-4.3017 2.49141,-8.72 6.11208,-17.0906 8.60349,-25.8105 1.28102,-4.4836 3.15123,-33.2635 4.30174,-34.414 1.01393,-1.0139 3.28782,1.0139 4.30175,0 2.86783,-2.8678 -2.86783,-14.3391 0,-17.2069 1.01393,-1.014 3.28782,1.0139 4.30175,0 2.15087,-2.1509 -2.15088,-10.7544 0,-12.9053 1.01392,-1.0139 3.28781,1.0139 4.30174,0 2.02786,-2.0278 -1.28253,-6.0384 0,-8.6035 1.81377,-3.6275 6.78972,-4.9759 8.60349,-8.6034 1.30356,-2.6072 2.49913,-11.1027 4.30175,-12.9053 1.01393,-1.0139 3.28781,1.0139 4.30174,0 2.33472,-2.3347 1.20743,-30.7917 0,-34.414 -2.38631,-7.1589 -8.31919,-29.8279 -12.90523,-34.4139 -1.01393,-1.014 -3.8483,1.3603 -4.30175,0 -2.6837,-8.0511 -0.54112,-18.2892 -4.30174,-25.8105 -1.81378,-3.6276 -6.35378,-5.229 -8.6035,-8.6035 -2.3622,-3.5433 -2.22829,-13.0601 -4.30174,-17.207 -1.81377,-3.6276 -6.78972,-4.9759 -8.60349,-8.6034 -1.30356,-2.6072 -2.49913,-11.1027 -4.30175,-12.9053 -1.01393,-1.0139 -3.28781,1.0139 -4.30174,0 -1.43392,-1.4339 -2.86783,-11.4713 -4.30175,-12.9052 -1.01393,-1.014 -3.28781,1.0139 -4.30174,0 -2.02787,-2.0279 2.02785,-6.5757 0,-8.6035 -1.01394,-1.0139 -3.28782,1.0139 -4.30175,0 -2.22657,-2.2266 -2.07518,-14.9804 -4.30174,-17.207 -1.01394,-1.014 -3.28782,1.0139 -4.30175,0 -0.9427,-0.9427 -11.68601,-19.0703 -12.90524,-21.5088 -5.16209,-10.3242 -20.64838,-15.4863 -25.81047,-25.8104 -0.64125,-1.2826 1.01393,-3.2878 0,-4.3018 -2.15087,-2.1508 -6.45262,-2.1508 -8.60349,-4.3017 -1.01393,-1.014 0.64125,-3.0192 0,-4.3017 -1.69148,-3.383 -6.62576,-15.2293 -8.6035,-17.2071 -1.01392,-1.0139 -3.28781,1.014 -4.30174,0 -2.02786,-2.0278 2.02786,-6.5756 0,-8.6034 -1.01393,-1.014 -3.28782,1.0139 -4.30175,0 -1.43391,-1.434 -2.86783,-11.4714 -4.30174,-12.9053 -0.2331,-0.2332 -12.67214,-8.3704 -12.90524,-8.6035 -2.49328,-2.4933 -6.1102,-14.7137 -8.60349,-17.2069 -2.31849,-2.3186 -12.90524,-5.7739 -12.90524,-12.9053 0,-4.1184 67.02877,-7.3522 73.12968,-4.3017 16.85175,8.4258 46.29385,6.0774 64.52618,0 13.35809,-4.4527 24.53957,2.7863 38.71571,-4.3017 5.04418,-2.5221 5.10569,2.5527 8.60349,4.3017 4.52328,2.2616 16.34177,0 21.50874,0 19.24809,0 44.01967,-3.8007 60.22443,4.3017 9.70074,4.8504 59.48996,0 73.12968,0 2.62508,0 15.53085,1.6761 17.20695,0 1.01393,-1.0139 -1.01392,-3.2878 0,-4.3017 2.15093,-2.1509 6.45263,-2.1509 8.60355,-4.3017 2.02785,-2.028 -2.02792,-6.5757 0,-8.6036 2.15085,-2.1508 6.45255,-2.1508 8.60348,-4.3017 2.02785,-2.0278 -2.02785,-6.5756 0,-8.6035 1.01392,-1.014 3.28777,1.014 4.3017,0 1.97775,-1.9777 6.91207,-13.824 8.60355,-17.207 2.56267,-5.1254 4.71877,-17.624 8.60347,-21.5087 8.90048,-8.9005 -0.348,13.6011 8.60348,-4.3018 1.2825,-2.565 -1.2825,-6.0384 0,-8.6035 0.9069,-1.8137 3.39487,-2.4879 4.30177,-4.3017 1.2825,-2.565 -2.02792,-6.5756 0,-8.6035 1.01393,-1.0139 3.28778,1.0139 4.3017,0 2.15093,-2.1509 -2.15085,-10.7543 0,-12.9052 1.01393,-1.014 3.66053,1.2825 4.30178,0 1.2825,-2.5651 -1.28258,-6.0385 0,-8.6035 0.64125,-1.2825 3.28777,1.0139 4.3017,0 1.97775,-1.9778 6.91207,-13.824 8.60355,-17.207 1.2825,-2.5651 -2.02785,-6.5756 0,-8.6035 2.15085,-2.1509 6.45262,-2.1509 8.60347,-4.3017 0.1515,-0.1515 2.77013,-11.3736 4.30178,-12.9053 2.15085,-2.1508 6.45255,-2.1508 8.60347,-4.3017 2.02785,-2.0279 -2.02785,-6.5756 0,-8.6035 2.15085,-2.1509 6.45263,-2.1509 8.60348,-4.3017 2.02785,-2.0279 -2.02785,-6.5757 0,-8.6035 1.01392,-1.0139 3.28777,1.0139 4.30177,0 2.02785,-2.0279 -1.28257,-6.0385 0,-8.6036 3.13688,-6.2737 6.88163,-6.8816 8.60348,-8.6034 2.02785,-2.0279 -1.28258,-6.0384 0,-8.6035 1.81372,-3.6275 6.78967,-4.976 8.60347,-8.6035 0.64125,-1.2826 -1.01392,-3.2878 0,-4.3018 1.01393,-1.0139 3.28785,1.014 4.30178,0 1.43385,-1.4339 2.86777,-11.4713 4.3017,-12.9052 1.43392,-1.4339 11.47133,-2.8678 12.90525,-4.3017 1.01392,-1.0139 -1.01393,-3.2879 0,-4.3018 2.02785,-2.0278 6.0384,1.2826 8.60347,0 6.27375,-3.1369 6.88163,-6.8816 8.60348,-8.6035 1.72777,-1.7277 10.47233,0.811 12.90525,0 13.64603,-4.5486 26.78227,-6.9385 38.7158,-12.9052 5.4522,-2.7261 19.5807,0 25.8104,0 2.4419,0 51.455,-0.1658 51.621,0 1.0139,1.0139 -1.0139,3.2878 0,4.3018 4.3322,4.3322 42.9869,17.1764 47.3191,21.5087 1.014,1.0139 -1.0139,3.2878 0,4.3017 0.2333,0.2332 12.6722,8.3704 12.9053,8.6035 2.1509,2.1509 2.1509,6.4526 4.3018,8.6035 1.0139,1.0139 3.2877,-1.0139 4.3017,0 1.014,1.0139 -1.014,3.2878 0,4.3017 8.9004,8.9005 -0.348,-13.6011 8.6035,4.3018 0.6413,1.2825 -1.0139,3.2878 0,4.3018 1.0139,1.0139 3.2878,-1.014 4.3017,0 1.0139,1.0139 -1.0139,3.2877 0,4.3017 0.2333,0.2332 12.6722,8.3703 12.9053,8.6034 1.0139,1.014 -1.014,3.2879 0,4.3018 1.0139,1.0139 3.2878,-1.0139 4.3017,0 2.4933,2.4933 6.1102,14.7137 8.6035,17.207 1.0139,1.014 3.2878,-1.014 4.3018,0 2.0278,2.0279 -2.0279,6.5756 0,8.6035 1.0139,1.0139 3.2877,-1.0139 4.3017,0 1.8026,1.8026 2.9982,10.2981 4.3017,12.9052 1.8138,3.6276 6.7897,4.9759 8.6035,8.6035 2.7908,5.5815 5.6978,11.3955 8.6035,17.207 1.2826,2.5651 -1.2825,6.0384 0,8.6035 2.5055,5.0109 6.098,7.8942 8.6035,12.9052 1.7908,3.5816 -2.7287,14.4784 0,17.207 1.0139,1.014 3.2878,-1.0139 4.3017,0 1.9886,1.9886 -1.2986,10.308 0,12.9052 3.5739,7.1477 5.7675,13.0008 8.6035,21.5087 0.9069,2.7207 -2.0278,6.5757 0,8.6036 1.0139,1.0139 3.2879,-1.0139 4.3018,0 2.1508,2.1508 -2.1509,10.7543 0,12.9052 1.0139,1.014 3.2878,-1.014 4.3017,0 2.0279,2.0279 -1.2825,6.0384 0,8.6035 4.4536,8.9072 8.5042,17.0084 12.9052,25.8104 1.2826,2.5651 -2.0278,6.5757 0,8.6036 0.2333,0.2332 12.6722,8.3704 12.9053,8.6035 1.0139,1.0139 -0.6413,3.0192 0,4.3017 8.9514,17.9028 -0.297,-4.5987 8.6035,4.3017 1.0139,1.014 -1.014,3.2879 0,4.3018 9.9872,9.9872 67.377,8.6035 86.0349,8.6035 12.4693,0 -6.3884,-0.348 21.5088,4.3017 21.5443,3.5908 46.9323,0 68.8278,0 6.8502,0 38.658,-4.3595 43.0175,0 1.0139,1.014 -1.0139,3.2878 0,4.3018 5.0854,5.0853 23.4655,-2.345 30.1123,4.3017 2.0649,2.0649 5.937,14.5406 8.6034,17.207 1.014,1.0139 3.2878,-1.0139 4.3017,0 4.1297,4.1296 -2.7154,20.3794 0,25.8105 0.9069,1.8137 3.3949,2.488 4.3018,4.3017 2.4451,4.8901 2.2712,96.4286 0,103.2419 -1.0139,3.0418 -3.5241,5.4929 -4.3018,8.6035 -1.9128,7.6517 5.9543,41.365 0,47.3192 -1.0139,1.0139 -3.2877,-1.0139 -4.3017,0 -4.3251,4.3251 2.0481,23.9681 0,30.1122 -2.1156,6.347 -6.7995,11.7951 -8.6034,17.207 -6.1314,18.3939 -11.0583,37.4766 -17.2071,55.9227 -3.8715,11.6147 3.8716,27.101 0,38.7157 -0.6412,1.9238 -3.3948,2.488 -4.3017,4.3018 -2.3155,4.631 -1.3142,48.6334 -4.3017,51.6209 -1.014,1.0139 -3.2879,-1.0139 -4.3018,0 -1.1387,1.1387 0,11.1339 0,12.9053 0,4.0794 2.5978,23.2126 0,25.8104 -1.0139,1.0139 -3.2878,-1.0139 -4.3017,0 -2.0279,2.0279 2.0278,6.5756 0,8.6035 -2.0279,2.0279 -6.0385,-1.2825 -8.6035,0 -4.5715,2.2857 -4.0321,6.3178 -8.6035,8.6035 -3.4414,1.7207 -9.4638,-1.7207 -12.9053,0 -10.0026,5.0013 -20.1095,7.9039 -30.1122,12.9053 -2.5972,1.2986 -10.9167,-1.9886 -12.9052,0 -1.014,1.0139 1.0139,3.2877 0,4.3017 -2.7287,2.7286 -13.6254,-1.7908 -17.207,0 -11.0824,5.5412 -21.6691,8.6569 -34.414,12.9052 -2.4329,0.811 -11.1774,-1.7278 -12.9052,0 -1.0139,1.0139 1.0139,3.2879 0,4.3018 -2.9805,2.9804 -18.5282,1.3212 -21.5087,4.3017 -1.014,1.0139 1.0139,3.2878 0,4.3018 -2.0279,2.0278 -6.5757,-2.0279 -8.6035,0 -1.0139,1.0139 1.0139,3.2877 0,4.3017 -2.0278,2.0279 -6.0384,-1.2825 -8.6035,0 -3.3829,1.6914 -15.2293,6.6258 -17.207,8.6035 -1.7219,1.7219 -2.3297,5.4666 -8.6035,8.6035 -2.6071,1.3036 -11.1026,2.4991 -12.9052,4.3018 -2.1509,2.1508 -2.1509,6.4525 -4.3017,8.6034 -3.8281,3.828 -18.3584,6.6045 -21.5088,12.9053 -1.27,2.5399 -7.1765,15.78 -8.6035,17.2069 -1.0139,1.014 -3.2878,-1.0139 -4.3017,0 -2.6035,2.6035 -18.3144,36.6288 -21.5087,43.0175 -1.7208,3.4414 1.7206,9.4639 0,12.9052 -0.9069,1.8138 -3.3949,2.488 -4.3018,4.3018 -0.9216,1.8432 -0.9216,71.2865 0,73.1297 0.9069,1.8138 3.3949,2.4879 4.3018,4.3017 1.9886,3.9772 -2.4082,19.1006 4.3017,25.8105 1.0139,1.0139 3.2878,-1.014 4.3017,0 2.8572,2.8571 -2.8571,5.7463 0,8.6034 1.014,1.014 3.2879,-1.0139 4.3018,0 1.4339,1.434 2.8678,11.4714 4.3017,12.9053 1.0139,1.0139 3.2879,-1.0139 4.3018,0 2.0278,2.0278 -2.0279,6.5756 0,8.6035 1.0139,1.0139 3.0192,-0.6413 4.3017,0 3.1183,1.5591 19.5349,26.1646 21.5088,30.1122 2.581,5.1621 10.3241,7.7431 12.9052,12.9052 1.3035,2.6072 2.4991,11.1027 4.3017,12.9053 2.1509,2.1508 6.4527,2.1508 8.6035,4.3017 1.4339,1.4339 2.8679,11.4713 4.3018,12.9053 2.1508,2.1508 6.4526,2.1508 8.6035,4.3017 1.4339,1.4339 2.8678,11.4713 4.3017,12.9052 0.3518,0.3516 25.4589,16.8555 25.8105,17.207 0.2332,0.2331 8.3703,12.6722 8.6034,12.9053 2.028,2.0278 6.5757,-2.0279 8.6036,0 1.0139,1.0139 -1.0139,3.2878 0,4.3017 2.9406,2.9407 24.105,11.1998 25.8104,12.9052 1.0139,1.014 -1.0139,3.2879 0,4.3018 1.9886,1.9885 10.308,-1.2987 12.9053,0 17.4706,8.7353 38.452,8.4717 55.9227,17.207 3.5815,1.7908 14.4783,-2.7287 17.2069,0 1.014,1.0139 -1.0139,3.2878 0,4.3017 2.1509,2.1509 6.4526,2.1509 8.6036,4.3018 1.9528,1.9528 10.5531,29.7097 12.9052,34.4139 1.2825,2.5651 -1.2826,6.0384 0,8.6035 23.7653,47.5307 21.5087,97.7536 21.5087,154.8629 0,10.0883 -1.014,-2.0279 4.3017,8.6034 3.7725,7.5451 0,49.9793 0,60.2245 0,15.7202 0.5565,28.4424 -4.3017,43.0174 -5.202,15.6061 3.7113,31.2932 -4.3017,47.3192 -2.2943,4.5886 2.2942,12.6185 0,17.207 -2.5056,5.011 -6.0981,7.8943 -8.6035,12.9053 -1.7207,3.4414 1.7206,9.4638 0,12.9052 -2.5055,5.011 -6.098,7.8943 -8.6035,12.9052 -1.2826,2.5651 2.0279,6.5757 0,8.6035 -1.014,1.014 -3.2878,-1.0139 -4.3018,0 -2.0278,2.0279 1.2825,6.0385 0,8.6035 -5.0084,10.0169 -17.0653,14.5126 -25.8105,21.5088 z"
       id="path21" /><path
       style="fill:#1d0862;fill-opacity:1;stroke-width:7.5"
       d="m 1621.7581,3351.0599 c -1.2803,-9.7354 -9.5657,-32.4897 -4.3017,-43.0175 0.9069,-1.8137 3.6604,-2.3779 4.3017,-4.3017 2.1902,-6.5708 2.3991,-98.4435 0,-103.2419 -0.9069,-1.8138 -3.3948,-2.488 -4.3017,-4.3018 -3.1467,-6.2932 1.9774,-17.5537 -4.3018,-30.1122 -4.4765,-8.9531 3.1506,-24.9621 0,-34.4139 -0.6413,-1.9238 -3.6605,-2.378 -4.3017,-4.3018 -4.3018,-12.9052 4.3017,-30.1122 0,-43.0174 -0.6413,-1.9238 -3.6605,-2.378 -4.3018,-4.3018 -5.1298,-15.3896 0,-100.0713 0,-124.7506 0,-11.2284 3.9926,-52.2393 0,-60.2245 -4.5952,-9.1904 -13.1782,-4.5747 -17.207,-8.6034 -1.0139,-1.014 1.014,-3.2879 0,-4.3018 -2.1509,-2.1509 -10.7543,2.1509 -12.9052,0 -1.0139,-1.0139 1.0139,-3.2878 0,-4.3017 -3.1651,-3.1651 -47.1281,-4.3018 -55.9227,-4.3018 -4.0795,0 -23.2127,2.5978 -25.8105,0 -1.0139,-1.0139 1.0139,-3.2878 0,-4.3017 -2.1508,-2.1509 -10.7543,2.1509 -12.9052,0 -1.014,-1.014 1.0139,-3.2878 0,-4.3018 -2.0279,-2.0278 -6.0384,1.2826 -8.6035,0 -4.5714,-2.2857 -4.0321,-6.3178 -8.6035,-8.6035 -2.6071,-1.3035 -11.1026,-2.4991 -12.9052,-4.3017 -1.014,-1.0139 0.6412,-3.0192 0,-4.3018 -1.2117,-2.4233 -14.3901,-11.4968 -17.207,-12.9052 -6.2813,-3.1406 -15.9691,1.2379 -21.5087,-4.3017 -2.065,-2.065 -5.9372,-14.5406 -8.6036,-17.207 -2.1508,-2.1509 -6.4526,-2.1509 -8.6034,-4.3018 -1.014,-1.0139 0.6412,-3.0192 0,-4.3017 -1.8138,-3.6276 -6.7897,-4.9759 -8.6035,-8.6035 -0.6413,-1.2825 1.0139,-3.2878 0,-4.3017 -1.0139,-1.014 -3.2879,1.0139 -4.3018,0 -1.4339,-1.434 -2.8678,-11.4714 -4.3017,-12.9053 -1.0139,-1.0139 -3.2878,1.014 -4.3018,0 -2.0278,-2.0278 1.2825,-6.0384 0,-8.6035 -3.8182,-7.6365 -9.087,-13.8722 -12.9052,-21.5087 -1.2825,-2.5651 2.0278,-6.5756 0,-8.6035 -1.0139,-1.0139 -3.2878,1.0139 -4.3017,0 -2.1509,-2.1509 2.1508,-10.7544 0,-12.9052 -2.1509,-2.1509 -6.4526,-2.1509 -8.6036,-4.3018 -2.9804,-2.9805 -1.3212,-18.5282 -4.3017,-21.5087 -1.0139,-1.0139 -3.2878,1.0139 -4.3017,0 -2.0279,-2.0279 1.2825,-6.0384 0,-8.6035 -5.5947,-11.1895 -15.7014,-63.2356 -8.6035,-77.4314 0.9069,-1.8138 3.6604,-2.3779 4.3018,-4.3018 1.3602,-4.0809 -1.3604,-8.8242 0,-12.9052 2.925,-8.7753 9.2153,-14.129 12.9051,-21.5087 1.9239,-3.8476 -1.3602,-8.8242 0,-12.9053 1.4853,-4.4558 6.4698,-8.6376 8.6036,-12.9052 1.2825,-2.565 -2.0279,-6.5756 0,-8.6035 1.0139,-1.0139 3.2878,1.014 4.3017,0 2.0278,-2.0279 -1.2825,-6.0384 0,-8.6035 5.2428,-10.4856 11.9642,-19.6266 17.207,-30.1122 1.2825,-2.5651 -1.2826,-6.0384 0,-8.6035 2.4964,-4.9927 7.112,-14.3103 12.9052,-17.207 1.2826,-0.6412 3.2878,1.0139 4.3018,0 1.0139,-1.0139 -1.014,-3.2878 0,-4.3017 1.0139,-1.0139 3.2878,1.0139 4.3017,0 1.014,-1.0139 -1.0139,-3.2878 0,-4.3018 1.014,-1.0139 3.2878,1.014 4.3017,0 1.014,-1.0139 -1.0139,-3.2877 0,-4.3017 4.4852,-4.4852 19.7633,-7.0917 25.8105,-8.6035 6.2212,-1.5553 10.9858,-7.0482 17.207,-8.6035 2.7822,-0.6952 5.8828,0.9069 8.6035,0 24.5898,-8.1966 -26.0054,-0.8213 12.9052,-8.6035 4.2182,-0.8436 8.732,1.0434 12.9053,0 1.9673,-0.492 2.4879,-3.3948 4.3017,-4.3017 7.4222,-3.7111 15.5281,-1.3114 21.5088,-4.3017 10.0026,-5.0014 20.1095,-7.904 30.1122,-12.9053 7.5502,-3.7751 48.1597,-0.8405 51.6209,-4.3018 4.8328,-4.8327 6.8779,-24.06 8.6035,-34.4139 2.7392,-16.4351 -4.0368,-35.4736 0,-51.621 7.4309,-29.7234 4.3017,-63.3241 4.3017,-94.6383 0,-35.8479 0,-71.6958 0,-107.5437 0,-11.4669 5.0169,-37.2855 0,-47.3192 -9.4752,-18.9507 -4.3017,-50.7454 -4.3017,-73.1297 0,-7.5564 -8.7948,-55.7313 -4.3017,-60.2244 4.1296,-4.1297 20.3794,2.7155 25.8105,0 7.2405,-3.6203 8.3609,-4.3018 17.2069,-4.3018 45.8853,0 91.7706,0 137.6559,0 10.1811,0 52.7125,-3.7559 60.2244,0 1.8138,0.9069 2.488,3.3949 4.3018,4.3018 4.5131,2.2565 18.0752,-3.4335 21.5087,0 2.0279,2.0278 -1.2826,6.0384 0,8.6035 1.4339,2.8678 2.0345,6.3363 4.3017,8.6034 1.014,1.014 3.6605,-1.2825 4.3018,0 1.9238,3.8477 -3.0418,9.8635 0,12.9053 1.0139,1.0139 3.2878,-1.0139 4.3018,0 4.2823,4.2824 -4.063,47.7968 0,55.9227 0.9068,1.8138 3.3948,2.488 4.3017,4.3018 3.4414,6.8827 -3.4414,18.9276 0,25.8104 5.5739,11.1478 7.2903,23.1841 12.9052,34.414 1.2826,2.565 -2.0278,6.5756 0,8.6034 1.0139,1.014 3.2878,-1.0139 4.3018,0 2.8677,2.8679 -2.8679,14.3392 0,17.2071 1.0139,1.0139 3.2877,-1.014 4.3017,0 1.374,1.3739 1.8103,38.0346 4.3017,43.0174 3.6249,7.2497 19.3206,40.8293 21.5088,43.0175 1.0139,1.0139 3.2877,-1.014 4.3017,0 1.4339,1.4339 2.8678,11.4713 4.3017,12.9052 1.014,1.0139 3.2879,-1.0139 4.3018,0 2.8165,2.8165 2.6753,9.9411 8.6035,12.9053 3.5442,1.7721 6.0468,1.745 8.6035,4.3017 1.0139,1.0139 -1.014,3.2878 0,4.3017 1.0139,1.014 3.2878,-1.0139 4.3017,0 1.014,1.014 -1.0139,3.2878 0,4.3017 2.0279,2.028 6.5757,-2.0278 8.6035,0 1.0139,1.014 -1.0139,3.2879 0,4.3018 2.0279,2.0279 6.0384,-1.2825 8.6035,0 8.5919,4.296 17.1923,4.2944 25.8105,8.6035 3.4414,1.7207 9.4638,-1.7207 12.9052,0 1.8138,0.9069 2.488,3.3949 4.3017,4.3018 8.03,4.0149 22.0824,-4.015 30.1123,0 1.8137,0.9069 2.488,3.3948 4.3017,4.3017 1.2565,0.6284 102.9899,5.8197 107.5436,4.3017 14.1963,-4.732 53.838,-10.8204 60.2245,-17.2069 1.0139,-1.0139 -1.0139,-3.2879 0,-4.3018 2.0279,-2.0279 6.5756,2.0278 8.6035,0 1.0139,-1.0139 -1.0139,-3.2878 0,-4.3018 0.2332,-0.2332 12.6721,-8.3703 12.9052,-8.6034 1.014,-1.014 -0.6412,-3.0193 0,-4.3017 2.5811,-5.1621 10.3242,-7.7432 12.9053,-12.9053 1.2825,-2.5651 -1.2826,-6.0385 0,-8.6035 3.6573,-7.3146 9.4163,-14.531 12.9053,-21.5087 2.2842,-4.5686 0.4672,-13.3723 4.3017,-17.207 1.0139,-1.0139 3.2878,1.0139 4.3017,0 2.1509,-2.1509 -2.1508,-10.7543 0,-12.9053 1.014,-1.0139 3.6605,1.2826 4.3017,0 3.601,-7.2018 0.7594,-18.7256 4.3018,-25.8104 5.0468,-10.0936 11.1793,-22.3322 12.9053,-34.414 1.0139,-7.0975 -1.014,-14.4112 0,-21.5087 0.4537,-3.1741 3.8483,-5.4294 4.3017,-8.6035 2.5556,-17.8893 1.4193,-28.6491 8.6035,-43.0175 1.2986,-2.5972 -1.9885,-10.9167 0,-12.9052 1.0139,-1.0139 3.2878,1.014 4.3017,0 4.1296,-4.1296 -2.7155,-20.3794 0,-25.8105 0.9069,-1.8138 3.3949,-2.4879 4.3018,-4.3017 1.2986,-2.5973 -1.9886,-10.9167 0,-12.9052 1.0139,-1.014 3.2878,1.0139 4.3018,0 2.1508,-2.1509 -2.151,-10.7544 0,-12.9053 1.0139,-1.0139 3.2877,1.014 4.3017,0 2.9805,-2.9805 1.3212,-18.5283 4.3017,-21.5087 1.014,-1.0139 3.2878,1.0139 4.3017,0 2.1509,-2.1509 -2.1508,-10.7544 0,-12.9052 5.3149,-5.3149 63.7326,4.3017 73.1298,4.3017 4.3017,0 9.8634,-3.0418 12.9052,0 1.0139,1.014 -1.014,3.2878 0,4.3017 1.1387,1.1388 11.1339,0 12.9052,0 3.3683,0 19.3623,-2.1465 21.5087,0 1.0139,1.014 -1.0139,3.2879 0,4.3018 1.1387,1.1387 11.134,0 12.9053,0 11.9174,0 20.3109,-0.5985 30.1122,4.3017 7.4126,3.7063 45.4988,0 55.9227,0 2.6251,0 15.5308,-1.6761 17.207,0 1.0139,1.0139 -1.0139,3.2879 0,4.3018 2.0278,2.0278 6.0384,-1.2826 8.6035,0 5.3035,2.6518 18.8569,16.2052 21.5087,21.5087 1.3288,2.6576 2.7073,15.6125 4.3018,17.207 1.0139,1.0139 3.2877,-1.014 4.3017,0 2.1509,2.1509 -2.1509,10.7544 0,12.9052 1.0139,1.0139 3.2878,-1.0139 4.3017,0 2.1509,2.1509 -2.1508,10.7544 0,12.9053 1.014,1.0139 3.2878,-1.014 4.3018,0 1.9885,1.9885 -1.2987,10.3079 0,12.9052 0.9068,1.8137 3.3948,2.488 4.3017,4.3017 1.2826,2.5651 -2.0278,6.5756 0,8.6036 1.0139,1.0139 3.2879,-1.014 4.3018,0 2.1508,2.1508 -2.1509,10.7543 0,12.9051 1.0139,1.014 3.2878,-1.0139 4.3017,0 2.0279,2.028 -1.2825,6.0385 0,8.6036 0.9069,1.8137 3.3949,2.488 4.3018,4.3017 1.7207,3.4414 -1.7208,9.4638 0,12.9052 3.6986,7.3973 4.9048,14.1116 8.6034,21.5087 3.7725,7.545 -2.0454,21.9307 0,30.1122 0.7777,3.1107 3.2879,5.5617 4.3018,8.6036 4.0961,12.2885 -2.282,21.2464 4.3017,34.4139 7.6755,15.3509 -7.7,100.7471 0,116.1472 0.9069,1.8138 3.3949,2.4879 4.3018,4.3017 3.3495,6.699 2.3112,109.2135 0,116.1471 -1.0139,3.0418 -3.2879,5.5617 -4.3018,8.6035 -2.2817,6.8452 0,18.5315 0,25.8105 0,17.7376 4.5781,115.5946 0,124.7506 -0.9068,1.8138 -3.3948,2.488 -4.3017,4.3018 -3.1462,6.2923 2.7363,20.3378 -4.3018,34.4139 -3.4413,6.8829 3.4414,18.9277 0,25.8105 -0.9069,1.8138 -3.3948,2.488 -4.3017,4.3017 -1.7908,3.5817 2.7287,14.4784 0,17.2071 -1.014,1.0139 -3.2878,-1.014 -4.3017,0 -1.9886,1.9885 1.2986,10.3079 0,12.9051 -3.1055,6.2109 -5.4981,10.9962 -8.6035,17.2071 -1.2826,2.565 1.2825,6.0384 0,8.6035 -2.0766,4.1531 -11.0279,23.9331 -12.9053,25.8104 -1.0139,1.014 -3.2878,-1.0139 -4.3017,0 -2.0279,2.0279 1.2825,6.0385 0,8.6035 -4.3496,8.6992 -8.663,17.3259 -12.9053,25.8105 -9.8437,19.6874 1.783,-18.2541 -8.6035,12.9052 -6.2757,18.8273 -12.3681,37.6416 -21.5087,55.9227 -2.1781,4.3562 -16.0053,33.2123 -17.2069,34.414 -1.014,1.0139 -3.2879,-1.0139 -4.3018,0 -1.434,1.4339 -2.8679,11.4713 -4.3017,12.9052 -2.1509,2.1509 -6.4526,2.1509 -8.6036,4.3018 -4.8732,4.8732 -8.0319,25.239 -12.9051,30.1122 -2.151,2.1509 -6.4527,2.1509 -8.6036,4.3017 -2.4933,2.4933 -6.1102,14.7137 -8.6035,17.207 -1.0139,1.014 -3.2877,-1.0139 -4.3017,0 -2.2725,2.2725 -10.6327,19.2362 -12.9052,21.5087 -1.0139,1.014 -3.2879,-1.0139 -4.3018,0 -2.4271,2.4272 -14.7799,27.6852 -17.2069,30.1123 -1.014,1.0139 -3.2879,-1.014 -4.3018,0 -1.014,1.0139 0.6412,3.0192 0,4.3017 -1.3151,2.6302 -7.2884,5.9734 -8.6035,8.6035 -1.3036,2.6071 -2.4991,11.1026 -4.3018,12.9052 -1.0139,1.014 -3.2878,-1.0139 -4.3017,0 -1.4339,1.434 -2.8678,11.4714 -4.3018,12.9053 -1.0139,1.0139 -3.2878,-1.0139 -4.3017,0 -8.9005,8.9004 13.6011,-0.3479 -4.3017,8.6035 -1.2826,0.6412 -3.2879,-1.014 -4.3018,0 -1.0139,1.0139 0.6412,3.0192 0,4.3017 -0.8703,1.7407 -25.0454,29.7297 -25.8105,30.1122 -1.2825,0.6413 -3.2878,-1.0139 -4.3017,0 -1.0139,1.014 1.0139,3.2879 0,4.3018 -1.0139,1.0139 -3.2879,-1.0139 -4.3018,0 -1.0139,1.0139 1.0139,3.2878 0,4.3017 -3.5848,3.5848 -13.6221,0.717 -17.2069,4.3018 -1.014,1.0139 1.0139,3.2878 0,4.3017 -1.014,1.014 -3.2879,-1.0139 -4.3018,0 -1.0139,1.014 0.6412,3.0192 0,4.3018 -8.9514,17.9028 0.297,-4.5988 -8.6035,4.3017 -1.0139,1.0139 0.6413,3.0192 0,4.3018 -0.729,1.4575 -27.0129,19.959 -30.1122,21.5087 -7.7285,3.8642 -52.6335,22.5213 -55.9227,25.8105 -1.0139,1.0139 1.0139,3.2878 0,4.3017 -4.0182,4.0182 -17.4906,4.5853 -21.5087,8.6035 -1.0139,1.0139 1.0139,3.2878 0,4.3017 -2.4933,2.4933 -14.7137,6.1102 -17.207,8.6035 -1.014,1.014 1.2825,3.6605 0,4.3018 -2.5651,1.2825 -5.8828,-0.9069 -8.6035,0 -5.0957,1.6985 -8.0681,10.4866 -12.9053,12.9052 -5.4085,2.7043 -20.1141,11.4812 -25.8104,12.9053 -9.9904,2.4975 -15.872,3.6342 -25.8105,8.6034 -6.4126,3.2064 -10.5502,10.2426 -17.2069,12.9053 -3.9942,1.5976 -8.8243,-1.3604 -12.9053,0 -4.9048,1.6349 -8.281,6.2914 -12.9052,8.6035 -2.6072,1.3035 -11.1027,2.4991 -12.9053,4.3017 -1.0139,1.014 1.0139,3.2878 0,4.3018 -2.1552,2.1551 -14.3868,1.4816 -17.2069,4.3017 -1.014,1.0139 1.0139,3.2878 0,4.3018 -2.5001,2.5 -13.5919,2.4941 -17.2071,4.3017 -11.0506,5.5253 -14.7324,7.3663 -25.8104,12.9052 -2.5651,1.2826 -6.5756,-2.0278 -8.6035,0 -1.014,1.014 1.0139,3.2879 0,4.3018 -2.0279,2.0278 -6.0384,-1.2826 -8.6035,0 -5.5082,2.7541 -11.4713,6.6916 -17.207,8.6035 -4.081,1.3603 -8.8242,-1.3604 -12.9052,0 -21.1291,7.043 -41.9605,15.8673 -64.5262,21.5087 -16.9235,4.2309 -34.9123,3.5909 -51.621,8.6035 -69.9086,20.9726 59.5516,-5.6939 -47.3191,17.207 -28.9253,6.1982 -60.2457,8.6141 -86.0349,21.5087 -4.6785,2.3392 -24.0756,2.5668 -25.8105,4.3017 -1.014,1.014 1.0139,3.2879 0,4.3018 -2.0279,2.0279 -6.5757,-2.0279 -8.6035,0 -1.0139,1.0139 1.0139,3.2878 0,4.3017 -2.1509,2.1509 -10.7544,-2.1508 -12.9053,0 -1.0139,1.014 1.2825,3.6605 0,4.3018 -2.565,1.2825 -5.8212,-0.6956 -8.6034,0 -11.965,2.9912 -40.4496,18.4909 -51.621,12.9052 -7.4784,-3.7392 -14.3391,-8.6035 -21.5087,-12.9052 z"
       id="path22" /><path
       style="fill:#6c45ee;fill-opacity:1;stroke-width:7.5"
       d="m 774.31425,1862.6558 c -28.16948,-11.1736 -53.89432,1.2086 -81.7332,4.3018 -10.60739,1.1786 -82.31483,-4.0109 -90.33666,0 -1.81378,0.9069 -2.48797,3.3949 -4.30175,4.3018 -16.05985,8.0298 -44.16459,-8.03 -60.22443,0 -1.81378,0.9069 -2.48798,3.3948 -4.30175,4.3017 -1.49997,0.75 -58.72447,0.75 -60.22444,0 -1.81377,-0.9069 -2.48797,-3.3948 -4.30175,-4.3017 -9.38141,-4.6908 -59.58136,4.9448 -64.52618,0 -1.01393,-1.014 1.01393,-3.2879 0,-4.3018 -2.8125,-2.8125 -5.79099,2.8125 -8.60349,0 -1.01393,-1.0139 1.01393,-3.2878 0,-4.3018 -2.82014,-2.82 -15.0518,-2.1465 -17.20699,-4.3017 -1.01392,-1.0139 1.01393,-3.2878 0,-4.3017 -2.02786,-2.0279 -6.57562,2.0278 -8.60349,0 -8.90046,-8.9005 13.60109,0.348 -4.30174,-8.6035 -5.49162,-2.7458 -14.46966,-5.8662 -17.20698,-8.6035 -2.49329,-2.4933 -6.11021,-14.7137 -8.60349,-17.207 -1.72188,-1.7219 -5.46662,-2.3297 -8.60349,-8.6035 -1.4379,-2.8758 -1.96785,-32.4461 0,-34.414 1.01392,-1.0139 3.28781,1.014 4.30174,0 2.02786,-2.0278 -2.02786,-6.5756 0,-8.6034 1.01393,-1.014 3.28781,1.0139 4.30175,0 2.02785,-2.0279 -2.02787,-6.5757 0,-8.6035 1.01393,-1.0139 3.28781,1.0139 4.30174,0 2.02786,-2.0279 -2.02786,-6.5756 0,-8.6035 2.15087,-2.1509 6.45262,-2.1509 8.60349,-4.3018 2.02787,-2.0278 -2.02786,-6.5756 0,-8.6034 1.01393,-1.014 3.28781,1.0139 4.30175,0 2.15517,-2.1553 1.4816,-14.3869 4.30174,-17.2071 0.2331,-0.2332 12.67214,-8.3704 12.90524,-8.6035 1.01393,-1.0139 -1.01393,-3.2877 0,-4.3016 2.02786,-2.028 6.03843,1.2824 8.60349,0 3.38295,-1.6915 15.22924,-6.6258 17.20698,-8.6036 1.01394,-1.0139 -1.01393,-3.2878 0,-4.3017 2.98049,-2.9805 18.52824,-1.3213 21.50873,-4.3018 1.01393,-1.0139 -1.01393,-3.2877 0,-4.3017 2.02786,-2.0279 6.57563,2.0279 8.60349,0 1.01393,-1.014 -1.01393,-3.2878 0,-4.3017 4.51811,-4.5182 48.3255,-0.5033 55.9227,-4.3018 6.21082,-3.1054 10.99616,-5.498 17.20698,-8.6035 2.56507,-1.2825 6.57562,2.0279 8.60349,0 1.01393,-1.0139 -1.01393,-3.2878 0,-4.3018 2.02786,-2.0278 6.03843,1.2826 8.60349,0 5.1621,-2.5809 7.74314,-10.3241 12.90524,-12.9051 1.28253,-0.6413 3.28781,1.0139 4.30175,0 2.15087,-2.151 2.15087,-6.4527 4.30174,-8.6036 1.01393,-1.0139 3.28781,1.014 4.30175,0 1.06128,-1.0612 1.06128,-24.7492 0,-25.8104 -1.01394,-1.0139 -3.28782,1.0139 -4.30175,0 -2.86783,-2.8679 2.86783,-14.3392 0,-17.207 -1.01393,-1.014 -3.28782,1.0139 -4.30174,0 -1.43392,-1.434 -2.86784,-11.4714 -4.30175,-12.9052 -0.2331,-0.2333 -12.67214,-8.3705 -12.90524,-8.6036 -1.01393,-1.0139 1.01393,-3.2877 0,-4.3017 -0.2331,-0.2332 -12.67214,-8.3703 -12.90524,-8.6035 -1.43391,-1.4339 -2.86782,-11.4713 -4.30174,-12.9052 -2.15087,-2.1509 -6.45262,-2.1509 -8.60349,-4.3018 -4.0872,-4.0872 3.43531,-46.4527 4.30174,-47.3192 2.49329,-2.4932 14.7137,-6.1102 17.20698,-8.6035 1.01394,-1.0139 -1.01393,-3.2877 0,-4.3017 2.85715,-2.8572 5.74635,2.8572 8.60349,0 1.01394,-1.014 -1.01392,-3.2878 0,-4.3017 1.01394,-1.014 3.28782,1.0139 4.30175,0 1.01393,-1.014 -1.01393,-3.2879 0,-4.3018 1.01393,-1.0139 3.01921,0.6412 4.30175,0 5.76156,-2.8808 5.96062,-10.2623 8.60349,-12.9053 0.2331,-0.2332 12.67214,-8.3703 12.90524,-8.6035 2.02786,-2.0278 -1.28253,-6.0383 0,-8.6034 0.90688,-1.8138 3.39486,-2.488 4.30174,-4.3018 2.75861,-5.5172 1.41581,-37.2999 0,-38.7157 -2.02786,-2.0278 -6.03842,1.2825 -8.60349,0 -1.81378,-0.9069 -2.48797,-3.3948 -4.30174,-4.3018 -2.56507,-1.2824 -6.57564,2.028 -8.60349,0 -1.01394,-1.0139 1.01392,-3.2877 0,-4.3017 -1.59452,-1.5945 -14.54935,-2.9729 -17.20699,-4.3017 -9.03853,-4.5193 0.0836,-8.52 -4.30175,-12.9053 -1.01393,-1.0139 -3.28781,1.0139 -4.30174,0 -4.61512,-4.6151 -8.60349,-23.1331 -8.60349,-30.1122 0,-8.9409 0.2952,-4.597 4.30174,-8.6035 2.02787,-2.0278 -2.02786,-6.5756 0,-8.6034 1.01394,-1.014 3.28782,1.0139 4.30175,0 1.01393,-1.014 -0.64125,-3.0193 0,-4.3018 2.88078,-5.7616 10.26237,-5.9606 12.90523,-8.6035 0.2331,-0.2332 8.37039,-12.6721 8.6035,-12.9052 2.15087,-2.1509 6.45262,-2.1509 8.60349,-4.3018 0.35153,-0.3518 16.85546,-25.4589 17.20698,-25.8104 1.01393,-1.014 3.28781,1.0139 4.30175,0 1.43391,-1.434 2.86782,-11.4714 4.30174,-12.9053 2.15087,-2.1508 6.45262,-2.1508 8.60349,-4.3018 8.90047,-8.9004 -13.60108,0.348 4.30175,-8.6034 1.28253,-0.6413 3.28782,1.0139 4.30175,0 2.49328,-2.4933 6.1102,-14.7138 8.60349,-17.207 1.01393,-1.0139 3.28781,1.0139 4.30174,0 4.30175,-4.3018 -4.30174,-21.5087 0,-25.8105 1.01394,-1.0139 3.28782,1.0139 4.30175,0 0.6852,-0.6855 0,-58.243 0,-64.5262 0,-12.6945 -3.41452,-79.2059 0,-86.0349 3.31487,-6.6297 4.30174,-8.8702 4.30174,-17.207 0,-6.2832 -0.6852,-63.84095 0,-64.52615 1.01394,-1.01393 3.28782,1.01392 4.30175,0 2.72865,-2.72865 -1.79079,-13.6254 0,-17.20695 4.34959,-8.69918 8.66294,-17.3259 12.90523,-25.8105 1.81378,-3.62753 6.78972,-4.97595 8.60349,-8.60348 1.30356,-2.60715 2.49914,-11.10262 4.30176,-12.90525 1.01392,-1.01392 3.0192,0.64125 4.30174,0 17.90283,-8.9514 -4.59872,0.297 4.30175,-8.60347 1.01393,-1.01393 3.0192,0.64125 4.30174,0 6.41267,-3.20633 10.79432,-9.69893 17.20698,-12.90525 12.16718,-6.08363 26.15881,-7.67318 38.71571,-12.90525 11.83877,-4.93283 22.40524,-12.70373 34.41397,-17.20695 10.9735,-4.1151 41.8549,-10.69628 51.62095,-17.20703 3.37455,-2.2497 4.97595,-6.78967 8.60347,-8.60347 5.94113,-2.97053 15.10733,-2.16795 21.50873,-4.30178 1.92382,-0.64125 2.48797,-3.3948 4.30177,-4.3017 2.56508,-1.28257 6.57563,2.02785 8.60348,0 1.01392,-1.01392 -1.01393,-3.28785 0,-4.30177 2.02785,-2.02785 6.0384,1.28257 8.60347,0 9.10583,-4.55288 45.75405,-15.83873 60.22448,-8.60348 1.81372,0.9069 2.48797,3.39488 4.3017,4.30178 2.59732,1.29862 10.9167,-1.98855 12.90525,0 1.01392,1.01392 -1.01393,3.28777 0,4.3017 1.98855,1.98855 10.308,-1.29863 12.90525,0 5.01097,2.50552 7.89427,6.09802 12.90525,8.60347 4.5885,2.29433 12.61845,-2.29425 17.20695,0 13.80622,6.90315 37.8148,6.90315 51.621,0 2.5972,-1.29862 10.9167,1.98855 12.9052,0 1.014,-1.01392 -1.014,-3.28777 0,-4.3017 2.1509,-2.15085 6.4526,-2.15085 8.6035,-4.30177 0.7642,-0.76418 5.549,-9.85065 8.6035,-12.90525 6.0499,-6.04988 17.7154,-13.92195 21.5087,-21.50873 4.6672,-9.33442 16.6678,-16.12852 21.5087,-25.81042 0.6413,-1.28258 -1.0139,-3.28785 0,-4.30178 1.014,-1.01392 3.2878,1.01393 4.3018,0 2.6429,-2.64285 2.8419,-10.02442 8.6035,-12.90525 1.2825,-0.64125 3.2878,1.01393 4.3017,0 3.238,-3.23797 10.5643,-19.16767 12.9052,-21.50872 1.014,-1.01393 3.2879,1.01392 4.3018,0 1.0139,-1.01393 -0.6412,-3.0192 0,-4.3017 1.8137,-3.6276 6.7897,-4.97595 8.6035,-8.60355 0.6412,-1.2825 -1.0139,-3.28778 0,-4.3017 2.1508,-2.15093 6.4526,-2.15093 8.6035,-4.30178 1.8026,-1.80262 2.9982,-10.2981 4.3017,-12.90525 1.8138,-3.62752 6.7897,-4.97595 8.6035,-8.60347 1.2826,-2.56508 -2.0278,-6.57563 0,-8.60348 1.0139,-1.01392 3.2879,1.01393 4.3018,0 2.0278,-2.02785 -2.0279,-6.57562 0,-8.60347 1.0139,-1.01393 3.2878,1.01392 4.3017,0 2.0278,-2.02785 -2.0279,-6.57563 0,-8.60355 1.0139,-1.01393 3.2878,1.014 4.3018,0 0.2332,-0.23325 8.3703,-12.67208 8.6034,-12.90518 1.014,-1.01392 3.2879,1.01393 4.3018,0 2.4933,-2.4933 6.1102,-14.71372 8.6035,-17.20702 1.1188,-1.11885 19.5993,-10.99583 21.5087,-12.90525 8.9005,-8.9004 -13.6011,0.348 4.3018,-8.60348 5.9336,-2.96677 3.8478,5.20965 8.6035,-4.3017 0.6412,-1.28257 -1.014,-3.28785 0,-4.30177 2.0278,-2.02785 6.0384,1.2825 8.6034,0 11.777,-5.88848 21.2381,-10.70925 34.414,-12.90525 15.8822,-2.64705 36.2269,-7.7739 51.6209,-12.90525 4.7501,-1.58333 13.0263,-7.55828 17.2071,-8.60348 20.442,-5.1105 45.8807,0.71925 64.5261,-8.60347 11.9675,-5.98373 49.551,16.17202 60.2244,21.50872 2.5651,1.2825 6.5757,-2.02785 8.6035,0 1.014,1.01393 -1.0139,3.28778 0,4.30178 2.0279,2.02785 6.5757,-2.02793 8.6036,0 2.1508,2.15085 2.1508,6.45255 4.3017,8.60347 2.0278,2.02785 6.5756,-2.02785 8.6035,0 1.0139,1.01393 -1.014,3.28778 0,4.3017 1.4339,1.43393 11.4713,2.86785 12.9052,4.30178 0.2332,0.23325 8.3704,12.67215 8.6035,12.90525 8.9004,8.90047 -0.348,-13.6011 8.6035,4.3017 1.2825,2.56507 -1.2826,6.03847 0,8.60355 11.2623,22.5246 -3.2488,75.2355 4.3017,90.3366 10.7311,21.46207 4.3018,60.65925 4.3018,86.03497 0,10.08833 -1.0139,-2.02792 4.3018,8.60348 4.9678,9.9357 0,98.9313 0,116.1471 0,10.8531 -1.5126,106.03115 0,107.54365 1.0139,1.014 3.2877,-1.014 4.3017,0 0.1515,0.1515 2.7701,11.3736 4.3017,12.9052 3.8987,3.8987 93.2007,-5.0206 103.2419,0 15.6502,7.8251 31.5843,13.6413 47.3192,21.5087 2.5651,1.2826 6.0384,-1.2825 8.6035,0 7.0906,3.5454 14.5763,5.1373 21.5087,8.6036 7.2341,3.617 22.7888,24.0687 25.8105,30.1122 1.2825,2.5651 -2.0278,6.5756 0,8.6035 1.0139,1.0139 3.2879,-1.014 4.3018,0 2.4932,2.4933 6.1102,14.7137 8.6035,17.2069 1.0139,1.014 3.2877,-1.0139 4.3017,0 1.427,1.427 7.3335,14.667 8.6035,17.207 5.4245,10.849 12.3928,11.8803 17.207,21.5088 1.2825,2.565 -1.2825,6.0384 0,8.6034 2.5055,5.011 6.098,7.8943 8.6034,12.9053 1.2826,2.5651 -2.0278,6.5756 0,8.6035 1.014,1.0139 3.2879,-1.014 4.3018,0 2.0279,2.0278 -1.2825,6.0384 0,8.6034 5.4644,10.9288 5.1413,-4.4055 8.6035,12.9053 1.9351,9.6753 -4.5359,29.644 0,38.7157 0.9069,1.8138 3.3949,2.488 4.3018,4.3017 2.8653,5.7308 2.8653,41.5885 0,47.3193 -0.9069,1.8138 -3.81,2.3344 -4.3018,4.3017 -0.8682,3.4729 -3.0175,41.7333 -4.3017,43.0175 -1.014,1.0139 -3.2879,-1.0139 -4.3018,0 -1.1387,1.1386 0,11.1339 0,12.9052 0,2.0057 -6.3468,12.6936 -8.6035,17.207 -1.2986,2.5972 1.9886,10.9167 0,12.9052 -2.1509,2.1509 -6.4526,2.1509 -8.6034,4.3017 -2.028,2.028 1.2825,6.0385 0,8.6036 -1.8138,3.6275 -6.7898,4.9759 -8.6036,8.6035 -0.6412,1.2825 1.0139,3.2877 0,4.3017 -1.0139,1.0139 -3.2878,-1.014 -4.3017,0 -1.0139,1.0139 1.0139,3.2878 0,4.3017 -1.0139,1.014 -3.2878,-1.0139 -4.3018,0 -1.0139,1.014 0,2.8679 0,4.3018 -1.4339,1.4339 -2.8678,2.8678 -4.3017,4.3017 -4.6251,4.6251 -13.563,4.9595 -17.207,8.6035 -1.0139,1.014 0.6413,3.0193 0,4.3018 -0.089,0.1777 -19.4038,16.1545 -21.5087,17.2069 -15.9241,7.9621 -29.9742,8.5345 -47.3192,17.207 -2.5973,1.2987 -10.9167,-1.9885 -12.9053,0 -1.0139,1.014 1.014,3.2878 0,4.3018 -3.0706,3.0706 -17.1507,-1.4527 -21.5087,0 -25.3745,8.4581 -49.0213,7.3037 -68.8279,17.207 -4.5131,2.2566 -18.0753,-3.4335 -21.5087,0 -1.0139,1.0139 1.0139,3.2877 0,4.3017 -5.7357,5.7357 -28.6784,-5.7357 -34.414,0 -2.8678,2.8678 2.8679,14.3391 0,17.207 -1.0139,1.0139 -3.2878,-1.0139 -4.3018,0 -1.9531,1.9531 -4.3017,71.6801 -4.3017,81.7332 0,71.6957 0,143.3915 0,215.0872 0,1.7713 1.1387,11.7666 0,12.9053 -1.014,1.0139 -3.2878,-1.0139 -4.3017,0 -2.5978,2.5978 0,21.731 0,25.8104 0,4.3018 0,8.6036 0,12.9053 0,1.4339 1.4339,4.3017 0,4.3017 -2.0279,0 -2.488,-3.3948 -4.3018,-4.3017 -2.5651,-1.2825 -6.0384,1.2825 -8.6035,0 -7.3972,-3.6986 -14.1115,-4.9049 -21.5087,-8.6035 -3.8792,-1.9396 -62.0665,-1.2299 -64.5262,0 -6.2108,3.1054 -10.9962,5.4981 -17.2069,8.6035 -0.908,0.4537 -83.2575,4.3017 -90.3367,4.3017 -10.0884,0 2.0278,-1.0139 -8.6035,4.3018 -2.5481,1.274 -36.1315,2.5843 -38.7157,0 -1.374,-1.374 -1.8104,-38.0347 -4.3018,-43.0175 -4.401,-8.802 -8.4516,-16.9033 -12.9052,-25.8104 -1.2987,-2.5974 1.9886,-10.9167 0,-12.9053 -1.0139,-1.0139 -3.2878,1.0139 -4.3018,0 -1.9885,-1.9885 1.2987,-10.3079 0,-12.9052 -5.0013,-10.0027 -7.9038,-20.1096 -12.9052,-30.1122 -1.7109,-3.4219 -1.8559,-23.3647 -4.3017,-25.8105 -1.0139,-1.014 -3.2879,1.0139 -4.3018,0 -2.0278,-2.0279 1.2825,-6.0384 0,-8.6035 -0.9069,-1.8138 -3.3949,-2.488 -4.3018,-4.3018 -1.2986,-2.5972 1.9886,-10.9167 0,-12.9052 -1.0139,-1.014 -3.2877,1.014 -4.3017,0 -4.3017,-4.3017 0,-17.207 -4.3017,-21.5087 -1.014,-1.014 -3.2878,1.0139 -4.3017,0 -1.014,-1.014 1.0139,-3.2878 0,-4.3018 -2.1509,-2.1508 -6.4527,-2.1508 -8.6036,-4.3017 -8.9005,-8.9005 13.6011,0.348 -4.3017,-8.6035 -1.2825,-0.6413 -3.2878,1.0139 -4.3017,0 -1.014,-1.0139 1.0139,-3.2878 0,-4.3018 -1.014,-1.0139 -3.2878,1.014 -4.3017,0 -1.014,-1.0139 1.0139,-3.2878 0,-4.3017 -0.2333,-0.2332 -12.6722,-8.3704 -12.9053,-8.6035 -2.1509,-2.1509 -2.1509,-6.4526 -4.3018,-8.6035 -1.0139,-1.0139 -3.0192,0.6412 -4.3017,0 -5.1621,-2.5811 -7.7431,-10.3241 -12.9052,-12.9052 -5.1255,-2.5627 -17.624,-4.7188 -21.5087,-8.6035 -1.014,-1.014 1.0139,-3.2878 0,-4.3017 -2.4459,-2.4459 -22.3887,-2.5908 -25.8105,-4.3018 -8.0757,-4.0379 -17.391,-8.6954 -25.8105,-12.9053 -3.5816,-1.7907 -14.4783,2.7287 -17.207,0 -1.0139,-1.0139 1.0139,-3.2877 0,-4.3017 -2.8678,-2.8678 -14.3392,2.8678 -17.207,0 -1.0139,-1.0139 1.014,-3.2878 0,-4.3017 -1.9885,-1.9886 -10.3079,1.2986 -12.9052,0 -16.55715,-8.2786 -35.86702,-8.6035 -55.9227,-8.6035 -5.73967,0 -46.48762,-0.8316 -47.31922,0 -2.15085,2.1508 -2.15085,6.4526 -4.30178,8.6035 -1.42695,1.427 -14.66692,7.3335 -17.20695,8.6034 -4.1574,2.0787 -15.12832,13.0497 -17.20695,17.2071 -0.64125,1.2825 1.01393,3.2877 0,4.3017 -1.014,1.0139 -3.28785,-1.014 -4.30177,0 -1.43393,1.4339 -2.86785,11.4713 -4.30178,12.9052 -2.15085,2.1509 -6.45262,2.1509 -8.60347,4.3018 -0.23325,0.2332 -8.37038,12.6721 -8.60348,12.9052 -1.01392,1.014 -3.28785,-1.0139 -4.30177,0 -2.02785,2.0279 2.02785,6.5757 0,8.6035 -1.01393,1.0139 -3.28778,-1.0139 -4.3017,0 -1.01393,1.0139 0.64125,3.0192 0,4.3017 -1.8138,3.6276 -6.78975,4.976 -8.60355,8.6036 -1.2825,2.565 2.02792,6.5756 0,8.6034 -1.01393,1.014 -3.28778,-1.0139 -4.3017,0 -2.60355,2.6035 -18.3144,36.6288 -21.50873,43.0175 -2.64202,5.284 -6.00502,29.2171 -8.60347,34.414 -0.64125,1.2825 -3.66053,-1.2826 -4.30178,0 -1.72072,3.4413 1.72073,9.4638 0,12.9052 -4.6413,9.2826 -1.48357,5.9343 -4.30177,17.207 -5.19323,20.7729 -2.04428,-0.213 -8.60348,12.9052 -4.75125,9.5026 1.77495,28.0661 0,38.7157 -1.20202,7.2121 -2.86785,14.3392 -4.3017,21.5087 z"
       id="path23" /><path
       style="fill:#eecd45;fill-opacity:1;stroke-width:7.5"
       d="m 1832.5436,1866.9576 c 2.5378,10.7846 6.0679,96.4045 8.6035,98.9402 1.014,1.0139 3.2878,-1.014 4.3018,0 1.9885,1.9885 -1.2986,10.3079 0,12.9052 1.8138,3.6275 6.7897,4.976 8.6035,8.6035 2.2842,4.5685 0.4672,13.3723 4.3017,17.207 2.1509,2.1509 6.4527,2.1509 8.6035,4.3017 2.4933,2.4933 6.1102,14.7137 8.6035,17.207 2.1509,2.1509 6.4526,2.1509 8.6035,4.3017 8.9004,8.9005 -13.6011,-0.348 4.3017,8.6035 1.2826,0.6413 3.2879,-1.0139 4.3018,0 1.0139,1.014 -1.0139,3.2879 0,4.3018 0.9427,0.9427 19.0702,11.686 21.5087,12.9052 17.9028,8.9514 -4.5987,-0.297 4.3017,8.6035 2.5568,2.5567 5.0594,2.5297 8.6036,4.3018 17.9028,8.9514 -4.5988,-0.297 4.3017,8.6035 1.0139,1.0139 3.2878,-1.014 4.3017,0 1.014,1.0139 -1.0139,3.2877 0,4.3017 2.5567,2.5567 5.0593,2.5296 8.6035,4.3017 17.9028,8.9514 -4.5987,-0.297 4.3018,8.6035 1.0139,1.0139 3.2878,-1.0139 4.3017,0 1.0139,1.0139 -0.6413,3.0193 0,4.3018 3.205,6.4098 19.4006,22.6055 25.8105,25.8105 1.2825,0.6412 3.2878,-1.014 4.3018,0 2.1508,2.1508 2.1508,6.4526 4.3017,8.6034 2.1508,2.1509 6.4526,2.1509 8.6034,4.3017 1.014,1.014 -1.0139,3.2879 0,4.3018 1.014,1.0139 3.0193,-0.6412 4.3018,0 3.6276,1.8138 4.976,6.7898 8.6035,8.6035 9.7489,4.8745 20.2748,7.9865 30.1122,12.9052 2.5973,1.2987 10.9167,-1.9885 12.9052,0 1.014,1.014 -1.0139,3.2879 0,4.3018 0.7381,0.738 62.1187,0 68.828,0 23.6386,0 38.1176,0.2993 55.9227,-8.6035 2.5651,-1.2825 6.5756,2.0279 8.6035,0 1.0139,-1.014 -1.014,-3.2878 0,-4.3017 2.1508,-2.1509 10.7544,2.1508 12.9052,0 1.014,-1.014 -1.0139,-3.2879 0,-4.3018 2.6664,-2.6664 15.1421,-6.5385 17.207,-8.6035 1.2058,-1.2058 7.8185,-14.852 8.6035,-17.2069 1.3603,-4.0811 -1.9238,-9.0577 0,-12.9053 2.5055,-5.011 6.098,-7.8943 8.6035,-12.9052 2.0823,-4.1647 -0.2183,-8.1668 4.3017,-17.207 4.4411,-8.8822 -2.4263,-24.7084 0,-34.414 2.4757,-9.9028 4.4731,-21.8514 8.6035,-30.1122 3.7038,-7.4077 -3.4405,-27.5329 4.3017,-43.0175 3.0543,-6.1086 0.5933,-60.8176 4.3018,-64.5262 1.0139,-1.0139 3.2878,1.014 4.3017,0 5.8744,-5.8743 -1.5725,-32.8413 4.3018,-38.7156 1.0139,-1.014 3.2878,1.0139 4.3018,0 2.8571,-2.8572 -2.8572,-5.7464 0,-8.6036 1.4339,-1.4338 11.4713,-2.8678 12.9051,-4.3017 1.722,-1.7218 2.3298,-5.4666 8.6036,-8.6035 2.5651,-1.2825 6.5756,2.0279 8.6035,0 1.0139,-1.0139 -1.014,-3.2878 0,-4.3017 3.0705,-3.0706 17.1507,1.4526 21.5087,0 3.0418,-1.014 5.5617,-3.2878 8.6035,-4.3018 3.6279,-1.2092 9.5082,1.6986 12.9052,0 1.8138,-0.9068 2.378,-3.6605 4.3018,-4.3017 6.3438,-2.1146 29.7866,4.6274 34.4139,0 1.014,-1.0139 -1.0139,-3.2878 0,-4.3018 1.1387,-1.1386 11.134,0 12.9053,0 24.871,0 44.2234,-4.3017 68.8279,-4.3017 6.2832,0 63.841,0.6855 64.5262,0 3.5755,-3.5754 -7.9331,-7.9331 -8.6035,-8.6035 -2.2266,-2.2265 -2.0752,-14.9804 -4.3018,-17.207 -1.0139,-1.0139 -3.2877,1.014 -4.3017,0 -1.0139,-1.0139 1.014,-3.2878 0,-4.3017 -1.0139,-1.014 -3.2878,1.0139 -4.3017,0 -1.014,-1.014 1.0139,-3.2878 0,-4.3017 -1.014,-1.014 -3.2878,1.0139 -4.3017,0 -1.014,-1.014 0.6412,-3.0192 0,-4.3018 -1.5279,-3.0557 -7.0757,-5.5478 -8.6036,-8.6035 -0.6412,-1.2826 1.0139,-3.2878 0,-4.3018 -1.0139,-1.0139 -3.0192,0.6413 -4.3017,0 -17.9029,-8.9514 4.5987,0.297 -4.3018,-8.6034 -2.1508,-2.1509 -6.4526,-2.1509 -8.6034,-4.3018 -1.014,-1.0139 1.0139,-3.2878 0,-4.3017 -1.014,-1.0139 -3.2879,1.0139 -4.3018,0 -1.0139,-1.0139 0.6412,-3.0192 0,-4.3018 -2.0787,-4.1574 -13.0496,-15.1282 -17.207,-17.2069 -1.2825,-0.6413 -3.2878,1.0139 -4.3017,0 -1.014,-1.014 0.6412,-3.0192 0,-4.3018 -2.9641,-5.9282 -10.0887,-5.787 -12.9053,-8.6035 -1.0139,-1.0139 1.0139,-3.2878 0,-4.3018 -1.0139,-1.0139 -3.2878,1.014 -4.3017,0 -0.015,-0.015 -9.0075,-13.3092 -12.9053,-17.2069 -6.3465,-6.3466 -9.1539,-17.4823 -17.2069,-21.5087 -3.5443,-1.7721 -6.0468,-1.7451 -8.6035,-4.3018 -2.0279,-2.0279 2.0278,-6.5756 0,-8.6035 -0.2333,-0.2332 -12.6721,-8.3704 -12.9053,-8.6035 -1.8026,-1.8026 -2.9981,-10.2981 -4.3017,-12.9052 -2.581,-5.1621 -10.3242,-7.7432 -12.9053,-12.9053 -0.6412,-1.2825 1.014,-3.2877 0,-4.3017 -1.0139,-1.0139 -3.2877,1.014 -4.3017,0 -1.4339,-1.4339 -2.8678,-11.4713 -4.3017,-12.9052 -1.014,-1.0139 -3.2879,1.0139 -4.3018,0 -2.0279,-2.0279 1.2826,-6.0385 0,-8.6035 -4.3496,-8.6992 -8.663,-17.3259 -12.9053,-25.8105 -1.8137,-3.6275 -6.7896,-4.9759 -8.6034,-8.6035 -1.6856,-3.3712 -5.1849,-22.3918 -8.6035,-25.8105 -1.0139,-1.0139 -3.2879,1.014 -4.3018,0 -2.0278,-2.0278 1.2826,-6.0384 0,-8.6034 -8.1054,-16.2108 -17.705,-31.1085 -25.8104,-47.3193 -1.2826,-2.565 2.0278,-6.5756 0,-8.6034 -1.7219,-1.7219 -5.4666,-2.3298 -8.6036,-8.6035 -1.2825,-2.5651 2.028,-6.5756 0,-8.6036 -1.0139,-1.0139 -3.4059,1.1198 -4.3017,0 -3.2142,-4.0177 -22.8717,-38.5029 -25.8105,-47.3191 -2.0096,-6.029 -1.491,-11.5857 -4.3017,-17.207 -3.2811,-6.5621 -9.6974,-10.7913 -12.9052,-17.207 -2.9999,-5.9996 -1.3019,-15.5091 -4.3018,-21.5087 -3.4888,-6.9777 -9.2479,-14.1941 -12.9052,-21.5087 -3.5619,-7.1237 -0.6848,-18.5772 -4.3017,-25.8105 -5.9643,-11.9284 -12.7323,-25.2915 -17.2071,-38.7157 -1.7517,-5.2554 3.7005,-22.11 0,-25.8105 -1.0139,-1.0139 -3.2877,1.0139 -4.3017,0 -5.0187,-5.0187 5.0187,-25.0935 0,-30.1122 -1.0139,-1.0139 -3.2878,1.0139 -4.3017,0 -4.3018,-4.3018 4.3017,-21.5087 0,-25.8105 -1.014,-1.0139 -3.2878,1.0139 -4.3018,0 -1.9885,-1.9886 1.2987,-10.3079 0,-12.9053 -5.6149,-11.2297 -7.3313,-23.2662 -12.9052,-34.4139 -4.5886,-9.177 4.5885,-25.2369 0,-34.4139 -0.9069,-1.8138 -3.6605,-2.378 -4.3018,-4.3018 -4.7232,-14.1699 3.6289,-32.8036 0,-47.3192 -0.7776,-3.1106 -3.2877,-5.5617 -4.3017,-8.6035 -2.8533,-8.5601 4.002,-22.1081 0,-30.1122 -0.9069,-1.8138 -3.3948,-2.488 -4.3017,-4.3018 -2.2566,-4.5131 3.4335,-18.0752 0,-21.50872 -1.014,-1.01393 -3.6606,1.28257 -4.3018,0 -2.5651,-5.13015 1.3911,-11.64255 0,-17.20695 -2.9432,-11.77275 -4.7501,-22.85393 -8.6035,-34.41398 -3.7405,-11.2215 1.7684,-17.97195 -4.3018,-30.1122 -3.5207,-7.04152 0,-80.64217 0,-94.63845 0,-8.02807 -0.9183,-6.13837 -4.3017,-12.90525 -3.1719,-6.3438 4.8226,-25.28955 0,-30.1122 -1.0139,-1.01392 -3.6605,1.28258 -4.3017,0 -4.5885,-9.17707 4.5885,-25.2369 0,-34.41397 -0.9069,-1.81373 -3.3949,-2.48798 -4.3017,-4.3017 -2.1875,-4.37483 -1.6747,-31.78688 -4.3018,-34.41398 -1.0139,-1.01392 -3.2879,1.01393 -4.3018,0 -2.1508,-2.15092 2.1509,-10.7544 0,-12.90525 -1.0139,-1.01392 -3.2878,1.01393 -4.3017,0 -2.1509,-2.15085 2.1509,-10.7544 0,-12.90525 -1.0139,-1.01392 -3.2878,1.01393 -4.3018,0 -2.0278,-2.02785 2.0279,-6.57562 0,-8.60347 -1.0139,-1.01393 -3.2877,1.01392 -4.3017,0 -2.0279,-2.02785 2.0279,-6.57563 0,-8.60348 -1.014,-1.01392 -3.2878,1.01393 -4.3017,0 -2.0279,-2.02785 2.0278,-6.57562 0,-8.60355 -1.014,-1.01392 -3.2879,1.014 -4.3018,0 -1.4339,-1.43385 -2.8678,-11.47125 -4.3017,-12.90517 -1.0139,-1.01393 -3.2879,1.01392 -4.3018,0 -0.2332,-0.23325 -8.3704,-12.67215 -8.6035,-12.90525 -2.0278,-2.02785 -6.5756,2.02785 -8.6034,0 -1.014,-1.01393 1.0139,-3.28785 0,-4.30178 -2.0214,-2.02125 -29.9365,-14.9682 -34.414,-17.20695 -3.6276,-1.8138 -4.976,-6.78975 -8.6035,-8.60347 -4.1326,-2.06633 -20.0697,-2.86268 -21.5087,-4.30178 -1.014,-1.01392 1.0139,-3.28785 0,-4.30178 -5.2754,-5.27534 -58.8197,5.00416 -68.828,0 -1.8138,-0.90682 -2.4879,-3.39479 -4.3017,-4.3017 -6.3438,-3.17189 -25.2897,4.82258 -30.1122,0 -1.014,-1.01392 1.0139,-3.28784 0,-4.30177 -4.3251,-4.3251 -23.9682,2.04803 -30.1122,0 -3.0419,-1.01393 -5.5617,-3.28778 -8.6036,-4.3017 -5.7768,-1.92562 -76.0196,-2.88997 -77.4313,-4.30177 -1.014,-1.01393 1.0139,-3.28785 0,-4.30178 -1.1388,-1.13865 -11.134,0 -12.9053,0 -15.2761,0 -62.8909,-5.11935 -73.1297,0 -10.6313,5.3157 1.4849,4.30178 -8.6035,4.30178 -2.6251,0 -15.5308,-1.6761 -17.2069,0 -1.014,1.01392 1.0139,3.28777 0,4.30177 -2.5978,2.59777 -21.7311,0 -25.8105,0 -7.7776,0 -81.4219,3.99045 -81.7332,4.3017 -1.014,1.01393 1.014,3.28785 0,4.30177 -4.3017,4.3017 -21.5088,-4.30177 -25.8105,0 -1.0139,1.01393 1.014,3.28778 0,4.3017 -2.8571,2.85721 -5.7463,-2.85712 -8.6034,0 -3.4826,3.48256 0,28.94273 0,34.41398 0,8.9409 -0.2955,4.59697 -4.3018,8.60347 -1.6154,1.61535 3.1604,70.84703 4.3018,73.12973 0.9068,1.81372 3.3948,2.48798 4.3017,4.3017 2.2942,4.58857 -2.2943,12.61845 0,17.20702 0.9069,1.81381 3.3948,2.48798 4.3017,4.3017 4.5885,9.17708 -4.5885,25.23698 0,34.41398 7.1598,14.31952 -0.2295,25.12312 4.3017,38.71575 0.6413,1.92375 3.3949,2.48797 4.3018,4.3017 6.9229,13.84582 -6.9557,67.82175 0,81.7332 6.2701,12.54007 4.3018,27.9567 4.3018,43.01745 0,9.30577 1.6325,10.83195 4.3017,21.50872 0.5737,2.29425 -1.5773,11.32793 0,12.90525 1.0139,1.01393 3.2878,-1.01392 4.3018,0 5.0187,5.0187 -5.0187,25.0935 0,30.1122 1.0139,1.01393 3.2877,-1.01392 4.3017,0 4.8473,4.84723 -6.6006,12.90523 4.3017,12.90523 8.9409,0 4.597,0.2955 8.6035,4.3018 5.7357,5.7356 28.6784,-5.7357 34.414,0 1.0139,1.0139 -1.0139,3.2878 0,4.3017 3.4335,3.4335 16.9956,-2.2565 21.5087,0 6.2108,3.1054 10.9962,5.4981 17.207,8.6035 4.1286,2.0644 13.0758,-1.377 17.207,0 1.9238,0.6412 2.488,3.3949 4.3018,4.3018 3.4413,1.7207 9.4638,-1.7208 12.9052,0 10.0026,5.0013 20.1095,7.9038 30.1122,12.9052 3.4414,1.7207 9.4638,-1.7207 12.9053,0 6.2108,3.1054 10.9961,5.4981 17.2069,8.6035 2.5651,1.2826 6.5756,-2.0279 8.6035,0 1.0139,1.0139 -1.0139,3.2878 0,4.3018 2.0278,2.0278 6.0385,-1.2826 8.6035,0 4.1531,2.0765 23.9331,11.0278 25.8105,12.9052 1.0139,1.0139 -1.014,3.2878 0,4.3017 0.9427,0.9428 19.0702,11.6861 21.5087,12.9053 8.6103,4.3051 19.9735,44.2485 25.8105,55.9227 2.2942,4.5885 -2.2943,12.6184 0,17.2069 0.9069,1.8138 3.3949,2.488 4.3017,4.3018 1.2826,2.5651 -2.0279,6.5756 0,8.6035 1.014,1.0139 3.2878,-1.014 4.3018,0 2.0278,2.0278 -1.2825,6.0384 0,8.6034 3.1053,6.2109 5.4981,10.9962 8.6034,17.2071 1.2987,2.5972 -1.9885,10.9167 0,12.9052 1.014,1.0139 3.2879,-1.0139 4.3018,0 7.1696,7.1696 -7.1695,35.8478 0,43.0175 1.0139,1.0139 3.2878,-1.014 4.3017,0 4.1297,4.1296 -2.7154,20.3794 0,25.8104 8.9786,17.9572 14.0731,62.1906 4.3018,81.7332 -1.2986,2.5972 1.9885,10.9167 0,12.9052 -1.0139,1.014 -3.2878,-1.0139 -4.3018,0 -2.88,2.88 2.88,5.7235 0,8.6035 -1.0139,1.0139 -3.2878,-1.0139 -4.3017,0 -1.4339,1.4339 -2.8678,11.4713 -4.3018,12.9053 -2.1508,2.1508 -6.4526,2.1508 -8.6034,4.3017 -2.0279,2.0279 1.2825,6.0384 0,8.6035 -4.7557,9.5114 -2.6699,1.3349 -8.6035,4.3017 -17.9029,8.9514 4.5987,-0.297 -4.3018,8.6035 -1.0139,1.0139 -3.2878,-1.0139 -4.3017,0 -1.4339,1.4339 -2.8678,11.4713 -4.3018,12.9052 -1.0139,1.014 -3.2878,-1.0139 -4.3017,0 -1.014,1.014 0.6412,3.0192 0,4.3018 -8.9514,17.9028 0.297,-4.5987 -8.6035,4.3017 -2.6429,2.6429 -2.8419,10.0245 -8.6035,12.9053 -1.2825,0.6412 -3.2878,-1.014 -4.3018,0 -1.0139,1.0139 1.014,3.2878 0,4.3017 -1.4339,1.434 -11.4713,2.8679 -12.9051,4.3017 -1.014,1.014 1.0139,3.2879 0,4.3018 -1.434,1.4339 -11.4714,2.8679 -12.9053,4.3018 -1.0139,1.0139 1.0139,3.2878 0,4.3017 -4.0182,4.0182 -17.4906,4.5853 -21.5087,8.6035 -1.0139,1.014 1.0139,3.2878 0,4.3017 -2.0279,2.0279 -6.5756,-2.0278 -8.6036,0 -1.0139,1.014 1.014,3.2879 0,4.3018 -2.0278,2.0279 -6.5756,-2.0278 -8.6034,0 -1.014,1.0139 1.0139,3.2878 0,4.3017 -4.5321,4.5322 -26.0651,0.255 -30.1122,4.3018 -1.014,1.0139 1.0139,3.2878 0,4.3018 -3.0418,3.0417 -8.8243,-1.3604 -12.9053,0 -1.9238,0.6412 -2.488,3.3948 -4.3017,4.3017 -9.0349,4.5174 -24.7885,-3.2085 -34.414,0 -1.9238,0.6412 -2.4879,3.3948 -4.3017,4.3017 -7.4963,3.7482 -47.6713,-3.9497 -51.621,0 -1.0139,1.014 1.014,3.2878 0,4.3017 -3.135,3.135 -17.2658,0.06 -21.5087,4.3018 -1.4395,1.4394 -4.3018,50.8748 -4.3018,60.2245 0,14.443 -5.136,67.1592 0,77.4313 6.1681,12.3363 6.7372,26.3796 12.9053,38.7158 2.2942,4.5885 -2.2943,12.6184 0,17.2069 4.2871,8.5742 4.3164,17.2364 8.6035,25.8105 3.1719,6.3438 -4.8226,25.2897 0,30.1122 1.0139,1.014 3.2878,-1.0139 4.3017,0 4.3596,4.3596 0,36.1674 0,43.0175 0,14.6863 -2.9052,44.4139 4.3017,51.621 3.5849,3.5848 17.924,-3.5848 21.5088,0 1.0139,1.0139 -1.014,3.2878 0,4.3017 2.1465,2.1465 18.1404,0 21.5087,0 18.6409,0 37.2818,0 55.9227,0 8.0281,0 6.1384,0.9184 12.9052,4.3018 1.5803,0.7901 42.366,4.3017 47.3193,4.3017 1.7712,0 11.7665,-1.1387 12.9052,0 1.0139,1.014 -1.0139,3.2878 0,4.3017 1.2049,1.205 19.7488,0.88 21.5087,0 13.0517,-6.5258 23.9703,-14.136 38.7157,-21.5087 z"
       id="path24" /></g></svg>